<svg xmlns="http://www.w3.org/2000/svg" width="420" height="260" viewBox="0 0 420 260">
  <defs>
    <linearGradient id="bg3" x1="0%" y1="0%" x2="100%" y2="100%">
      <stop offset="0%" style="stop-color:#111114"/>
      <stop offset="100%" style="stop-color:#18181b"/>
    </linearGradient>
  </defs>
  <rect width="420" height="260" fill="url(#bg3)" rx="12"/>
  <rect x="0" y="0" width="420" height="3" fill="#f59e0b" rx="1.5"/>

  <!-- Title -->
  <text x="24" y="36" font-family="system-ui, sans-serif" font-size="11" font-weight="700" fill="#f59e0b" letter-spacing="1">WORKFLOW</text>
  <text x="24" y="62" font-family="system-ui, sans-serif" font-size="20" font-weight="700" fill="#fafafa">Multi-Folder Batch Processing</text>

  <!-- Folder list -->
  <rect x="24" y="78" width="180" height="164" fill="#09090b" rx="8"/>
  <text x="38" y="98" font-family="system-ui, sans-serif" font-size="10" font-weight="600" fill="#a1a1aa">Experiment Folders</text>

  <!-- Folder items -->
  <rect x="32" y="106" width="164" height="26" fill="#10b981" fill-opacity="0.1" rx="4"/>
  <text x="46" y="123" font-family="system-ui, sans-serif" font-size="10" fill="#10b981">experiment_01</text>
  <text x="174" y="123" font-family="system-ui, sans-serif" font-size="9" fill="#10b981" text-anchor="end">91/91</text>

  <rect x="32" y="136" width="164" height="26" fill="#10b981" fill-opacity="0.1" rx="4"/>
  <text x="46" y="153" font-family="system-ui, sans-serif" font-size="10" fill="#10b981">experiment_02</text>
  <text x="174" y="153" font-family="system-ui, sans-serif" font-size="9" fill="#10b981" text-anchor="end">85/120</text>

  <rect x="32" y="166" width="164" height="26" fill="#6366f1" fill-opacity="0.1" rx="4"/>
  <text x="46" y="183" font-family="system-ui, sans-serif" font-size="10" fill="#a5b4fc">experiment_03</text>
  <text x="174" y="183" font-family="system-ui, sans-serif" font-size="9" fill="#6366f1" text-anchor="end">42%</text>

  <rect x="32" y="196" width="164" height="26" fill="none" rx="4"/>
  <text x="46" y="213" font-family="system-ui, sans-serif" font-size="10" fill="#71717a">experiment_04</text>
  <text x="174" y="213" font-family="system-ui, sans-serif" font-size="9" fill="#71717a" text-anchor="end">pending</text>

  <!-- Progress panel -->
  <rect x="218" y="78" width="178" height="164" fill="#09090b" rx="8"/>
  <text x="232" y="98" font-family="system-ui, sans-serif" font-size="10" font-weight="600" fill="#a1a1aa">Current: experiment_03</text>

  <!-- Progress bar -->
  <rect x="232" y="110" width="150" height="8" fill="#27272a" rx="4"/>
  <rect x="232" y="110" width="63" height="8" fill="#6366f1" rx="4"/>
  <text x="307" y="132" font-family="system-ui, sans-serif" font-size="20" font-weight="700" fill="#fafafa" text-anchor="middle">42%</text>
  <text x="307" y="148" font-family="system-ui, sans-serif" font-size="10" fill="#71717a" text-anchor="middle">50 / 120 frames</text>

  <!-- Stats -->
  <line x1="232" y1="162" x2="382" y2="162" stroke="#27272a" stroke-width="1"/>
  <text x="232" y="180" font-family="system-ui, sans-serif" font-size="10" fill="#71717a">Completed</text>
  <text x="382" y="180" font-family="system-ui, sans-serif" font-size="10" font-weight="600" fill="#10b981" text-anchor="end">2 / 4</text>
  <text x="232" y="200" font-family="system-ui, sans-serif" font-size="10" fill="#71717a">Total fitted</text>
  <text x="382" y="200" font-family="system-ui, sans-serif" font-size="10" font-weight="600" fill="#fafafa" text-anchor="end">226</text>
  <text x="232" y="220" font-family="system-ui, sans-serif" font-size="10" fill="#71717a">Export</text>
  <text x="382" y="220" font-family="system-ui, sans-serif" font-size="10" font-weight="600" fill="#3b82f6" text-anchor="end">.mat + CSV</text>
</svg>
