<svg xmlns="http://www.w3.org/2000/svg" width="420" height="260" viewBox="0 0 420 260">
  <defs>
    <linearGradient id="bg2" x1="0%" y1="0%" x2="100%" y2="100%">
      <stop offset="0%" style="stop-color:#111114"/>
      <stop offset="100%" style="stop-color:#18181b"/>
    </linearGradient>
  </defs>
  <rect width="420" height="260" fill="url(#bg2)" rx="12"/>
  <rect x="0" y="0" width="420" height="3" fill="#10b981" rx="1.5"/>

  <!-- Title -->
  <text x="24" y="36" font-family="system-ui, sans-serif" font-size="11" font-weight="700" fill="#10b981" letter-spacing="1">VISUALIZATION</text>
  <text x="24" y="62" font-family="system-ui, sans-serif" font-size="20" font-weight="700" fill="#fafafa">Interactive R(t) Chart</text>

  <!-- Chart area -->
  <rect x="24" y="78" width="372" height="164" fill="#09090b" rx="8"/>

  <!-- Y axis -->
  <line x1="64" y1="92" x2="64" y2="228" stroke="#27272a" stroke-width="1"/>
  <text x="40" y="160" font-family="system-ui, sans-serif" font-size="9" fill="#71717a" text-anchor="middle" transform="rotate(-90, 40, 160)">Radius (px)</text>
  <text x="58" y="100" font-family="system-ui, sans-serif" font-size="8" fill="#3f3f46" text-anchor="end">80</text>
  <text x="58" y="130" font-family="system-ui, sans-serif" font-size="8" fill="#3f3f46" text-anchor="end">60</text>
  <text x="58" y="160" font-family="system-ui, sans-serif" font-size="8" fill="#3f3f46" text-anchor="end">40</text>
  <text x="58" y="190" font-family="system-ui, sans-serif" font-size="8" fill="#3f3f46" text-anchor="end">20</text>

  <!-- X axis -->
  <line x1="64" y1="228" x2="384" y2="228" stroke="#27272a" stroke-width="1"/>
  <text x="224" y="240" font-family="system-ui, sans-serif" font-size="9" fill="#71717a" text-anchor="middle">Frame</text>

  <!-- Grid lines -->
  <line x1="64" y1="130" x2="384" y2="130" stroke="#27272a" stroke-width="0.5" stroke-dasharray="2,4"/>
  <line x1="64" y1="160" x2="384" y2="160" stroke="#27272a" stroke-width="0.5" stroke-dasharray="2,4"/>
  <line x1="64" y1="190" x2="384" y2="190" stroke="#27272a" stroke-width="0.5" stroke-dasharray="2,4"/>

  <!-- Data points (parabolic curve) -->
  <circle cx="80" cy="190" r="3.5" fill="#10b981" opacity="0.8"/>
  <circle cx="100" cy="172" r="3.5" fill="#10b981" opacity="0.8"/>
  <circle cx="120" cy="155" r="3.5" fill="#10b981" opacity="0.8"/>
  <circle cx="140" cy="140" r="3.5" fill="#10b981" opacity="0.8"/>
  <circle cx="160" cy="125" r="3.5" fill="#10b981" opacity="0.8"/>
  <circle cx="180" cy="112" r="3.5" fill="#10b981" opacity="0.8"/>
  <circle cx="200" cy="100" r="3.5" fill="#10b981" opacity="0.8"/>
  <circle cx="220" cy="96" r="3.5" fill="#10b981" opacity="0.8"/>
  <circle cx="240" cy="98" r="3.5" fill="#10b981" opacity="0.8"/>
  <circle cx="260" cy="108" r="3.5" fill="#10b981" opacity="0.8"/>
  <circle cx="280" cy="125" r="3.5" fill="#10b981" opacity="0.8"/>
  <circle cx="300" cy="148" r="3.5" fill="#10b981" opacity="0.8"/>
  <circle cx="320" cy="170" r="3.5" fill="#f59e0b" opacity="0.8"/>
  <circle cx="340" cy="195" r="3.5" fill="#10b981" opacity="0.8"/>
  <circle cx="360" cy="218" r="3.5" fill="#ef4444" opacity="0.8"/>

  <!-- Highlight ring on peak -->
  <circle cx="220" cy="96" r="10" fill="none" stroke="#6366f1" stroke-width="1.5" opacity="0.7"/>

  <!-- Tooltip -->
  <rect x="230" y="82" width="78" height="22" fill="#18181b" stroke="#27272a" stroke-width="1" rx="4"/>
  <text x="269" y="97" font-family="system-ui, sans-serif" font-size="9" fill="#fafafa" text-anchor="middle">R = 82.4 px</text>

  <!-- Legend -->
  <circle cx="290" y="228" cx="290" cy="240" r="3" fill="#10b981"/>
  <text x="298" y="243" font-family="system-ui, sans-serif" font-size="8" fill="#71717a">Good</text>
  <circle cx="330" cy="240" r="3" fill="#f59e0b"/>
  <text x="338" y="243" font-family="system-ui, sans-serif" font-size="8" fill="#71717a">Warning</text>
  <circle cx="378" cy="240" r="3" fill="#ef4444"/>
  <text x="386" y="243" font-family="system-ui, sans-serif" font-size="8" fill="#71717a"/>
</svg>
